<svg width="127.623566" height="14.000000" viewBox="0 0 127.624 14" fill="none" xmlns="http://www.w3.org/2000/svg" xmlns:xlink="http://www.w3.org/1999/xlink">
	<desc>
			Created with Pixso.
	</desc>
	<defs>
		<clipPath id="clip2_622">
			<rect id="Logo" rx="0.000000" width="126.623558" height="13.000000" transform="translate(0.500000 0.500000)" fill="white" fill-opacity="0"/>
		</clipPath>
	</defs>
	<g clip-path="url(#clip2_622)">
		<path id="Vector" d="M61.75 13.99C60.69 13.99 59.75 14.01 58.79 13.97C58.63 13.97 58.44 13.72 58.33 13.55C57.37 11.97 56.42 10.38 55.48 8.79C55.42 8.65 55.31 8.53 55.18 8.45C55.05 8.38 54.9 8.34 54.74 8.36C53.96 8.39 53.17 8.36 52.3 8.36L52.3 13.94L49.52 13.94L49.52 0.05C49.6 0.04 49.68 0.02 49.77 0.02C52.37 0.02 54.97 -0.04 57.57 0.03C60.84 0.13 62.7 3.5 61.1 6.34C60.5 7.4 59.55 7.99 58.31 8.29C59.45 10.18 60.57 12.03 61.75 13.99ZM52.34 2.75L52.34 5.68C54.13 5.68 55.87 5.71 57.61 5.66C58.39 5.64 58.88 5 58.87 4.23C58.87 3.47 58.38 2.78 57.64 2.76C55.88 2.71 54.12 2.75 52.34 2.75Z" fill="#262626" fill-opacity="1.000000" fill-rule="nonzero"/>
		<path id="Vector" d="M98.34 0.01C99.18 0.01 99.97 -0.02 100.76 0.03C101.01 0.08 101.23 0.23 101.37 0.43C103.43 3.23 105.48 6.03 107.52 8.84C107.64 9 107.77 9.15 108.01 9.45L108.01 0.05L110.77 0.05L110.77 13.99C109.9 13.99 109.02 14.01 108.17 13.96C107.98 13.96 107.78 13.68 107.64 13.5C105.61 10.73 103.59 7.96 101.57 5.19C101.45 5.02 101.32 4.87 101.07 4.55L101.07 13.96L98.32 13.96L98.34 0.01Z" fill="#262626" fill-opacity="1.000000" fill-rule="nonzero"/>
		<path id="Vector" d="M32.82 0.03L43.85 0.03L43.85 2.75L35.63 2.75L35.63 5.63L42.93 5.63L42.93 8.34L35.62 8.34L35.62 11.22L43.84 11.22L43.84 13.95L32.82 13.95L32.82 0.03Z" fill="#262626" fill-opacity="1.000000" fill-rule="nonzero"/>
		<path id="Vector" d="M126.74 5.61L126.74 8.33L119.41 8.33L119.41 11.22L127.61 11.22L127.61 13.95L116.58 13.95L116.58 0.06L127.63 0.06L127.63 2.75L119.38 2.75L119.38 5.61L126.74 5.61Z" fill="#262626" fill-opacity="1.000000" fill-rule="nonzero"/>
		<path id="Vector" d="M-0.01 13.93L-0.01 0.05L11.04 0.05L11.04 2.75L2.8 2.75L2.8 5.6L10.16 5.6L10.16 8.35L2.79 8.35L2.79 11.21L11.05 11.21L11.05 13.93L-0.01 13.93Z" fill="#262626" fill-opacity="1.000000" fill-rule="nonzero"/>
		<path id="Vector" d="M80.19 13.99C80.74 12.62 81.26 11.34 81.77 10.05C83.04 6.89 84.32 3.74 85.57 0.56C85.74 0.12 85.96 -0.04 86.43 0C86.99 0.04 87.55 -0.03 88.11 0.02C88.23 0.04 88.34 0.08 88.45 0.14C88.55 0.2 88.63 0.29 88.7 0.39C90.51 4.83 92.3 9.28 94.08 13.74C94.1 13.82 94.12 13.9 94.13 13.99C93.24 13.99 92.38 14 91.51 13.97C91.42 13.95 91.34 13.91 91.27 13.85C91.19 13.79 91.13 13.72 91.09 13.63C90.8 12.95 90.52 12.25 90.27 11.55C90.24 11.41 90.16 11.28 90.04 11.2C89.92 11.12 89.78 11.09 89.64 11.11C87.99 11.13 86.35 11.13 84.71 11.11C84.57 11.09 84.42 11.12 84.31 11.21C84.19 11.29 84.11 11.41 84.08 11.55C83.83 12.21 83.53 12.85 83.3 13.52C83.17 13.91 82.96 14.02 82.57 14C81.81 13.96 81.05 13.99 80.19 13.99ZM89.03 8.47C88.41 6.88 87.83 5.38 87.24 3.87L87.09 3.9C86.5 5.4 85.9 6.91 85.29 8.47L89.03 8.47Z" fill="#262626" fill-opacity="1.000000" fill-rule="nonzero"/>
		<path id="Vector" d="M14.9 0.02C15.88 0.02 16.75 -0.01 17.62 0.03C17.78 0.03 18.01 0.28 18.08 0.47C19.27 3.4 20.43 6.34 21.58 9.28C21.68 9.53 21.79 9.76 21.96 10.16C22.12 9.78 22.23 9.53 22.33 9.27C23.49 6.35 24.65 3.44 25.78 0.51C25.82 0.35 25.92 0.2 26.07 0.11C26.21 0.02 26.38 -0.02 26.55 0.02C27.32 0.05 28.08 0.02 28.93 0.02C28.75 0.46 28.61 0.84 28.46 1.22C26.81 5.31 25.16 9.39 23.52 13.48C23.37 13.87 23.19 14.02 22.77 14C22.02 13.96 21.27 14 20.52 14C18.65 9.33 16.79 4.71 14.9 0.02Z" fill="#262626" fill-opacity="1.000000" fill-rule="nonzero"/>
		<path id="Vector" d="M67.04 0.04L69.78 0.04L69.78 11.22L77.13 11.22L77.13 13.94L67.04 13.94L67.04 0.04Z" fill="#262626" fill-opacity="1.000000" fill-rule="nonzero"/>
	</g>
</svg>
